# xmcd
#
# Track frame offsets: 
#        150
#        19339
#        35951
#        46614
#        65822
#        81313
#        98845
#        114746
#        142321
#        159167
#        171863
#
# Disc length: 2627 seconds
#
# Revision: 0
# Processed by: cddbd v1.5.2PL0 Copyright (c) Steve Scherf et al.
# Submitted via: ExactAudioCopyFreeDBPlugin 1.0
#
DISCID=9b0a410b
DTITLE=Bad Temper Joe - The Maddest Of Them All
DYEAR=2019
DGENRE=Blues
TTITLE0=Hell's Gonna Fly
TTITLE1=Bad Gasoline
TTITLE2=Talkin' 21st Century Schizoid Blues
TTITLE3=My Favorite Things
TTITLE4=Heartache Shuffle '13 and '36
TTITLE5=Flyin'
TTITLE6=A Smoke, Burgers and Beer
TTITLE7=Supper in Mexico
TTITLE8=Postcards Ain't Enough
TTITLE9=Rules and Lies
TTITLE10=Highway Takes the Lonely
EXTD=
EXTT0=
EXTT1=
EXTT2=
EXTT3=
EXTT4=
EXTT5=
EXTT6=
EXTT7=
EXTT8=
EXTT9=
EXTT10=
PLAYORDER=
